<?xml version="1.0" encoding="UTF-8" standalone="no"?><svg xmlns="http://www.w3.org/2000/svg" xmlns:xlink="http://www.w3.org/1999/xlink" clip-rule="evenodd" stroke-miterlimit="4.00" viewBox="0 0 1024 768"><desc>SVG generated by Keynote</desc><defs></defs><g transform="matrix(1.00, 0.00, -0.00, -1.00, 0.0, 768.0)"><g><clipPath id="clip-8"><path d="M 0.0 768.0 L 1024.0 768.0 L 1024.0 0.0 L 0.0 0.0 Z M 0.0 768.0 "></path></clipPath><g clip-path="url(#clip-8)"><image xlink:href="../../8B9AF44D-EE61-422A-BF61-EE53949B6ACF/assets/A66C4C7396610A43993186C2FAAF1D62.jpeg" width="1024.00" height="768.00" transform="matrix(1.00, 0.00, -0.00, -1.00, 0.0, 768.0)"></image></g></g><text xml:space="preserve" font-family="Verdana-Italic" font-style="italic" font-size="56.0" fill="#72665A" transform="matrix(1.00, 0.00, -0.00, -1.00, 56.0, 362.0)">W</text><text xml:space="preserve" font-family="Verdana-Italic" font-style="italic" font-size="56.0" fill="#72665A" transform="matrix(1.00, 0.00, -0.00, -1.00, 111.5, 362.0)">h</text><text xml:space="preserve" font-family="Verdana-Italic" font-style="italic" font-size="56.0" fill="#72665A" transform="matrix(1.00, 0.00, -0.00, -1.00, 146.9, 362.0)">a</text><text xml:space="preserve" font-family="Verdana-Italic" font-style="italic" font-size="56.0" fill="#72665A" transform="matrix(1.00, 0.00, -0.00, -1.00, 180.5, 362.0)">t</text><text xml:space="preserve" font-family="Verdana-Italic" font-style="italic" font-size="56.0" fill="#72665A" transform="matrix(1.00, 0.00, -0.00, -1.00, 202.6, 362.0)"> </text><text xml:space="preserve" font-family="Verdana-Italic" font-style="italic" font-size="56.0" fill="#72665A" transform="matrix(1.00, 0.00, -0.00, -1.00, 222.2, 362.0)">i</text><text xml:space="preserve" font-family="Verdana-Italic" font-style="italic" font-size="56.0" fill="#72665A" transform="matrix(1.00, 0.00, -0.00, -1.00, 237.6, 362.0)">f</text><text xml:space="preserve" font-family="Verdana-Italic" font-style="italic" font-size="56.0" fill="#72665A" transform="matrix(1.00, 0.00, -0.00, -1.00, 257.3, 362.0)"> </text><text xml:space="preserve" font-family="Verdana-Italic" font-style="italic" font-size="56.0" fill="#72665A" transform="matrix(1.00, 0.00, -0.00, -1.00, 277.0, 362.0)">w</text><text xml:space="preserve" font-family="Verdana-Italic" font-style="italic" font-size="56.0" fill="#72665A" transform="matrix(1.00, 0.00, -0.00, -1.00, 322.8, 362.0)">e</text><text xml:space="preserve" font-family="Verdana-Italic" font-style="italic" font-size="56.0" fill="#72665A" transform="matrix(1.00, 0.00, -0.00, -1.00, 356.1, 362.0)"> </text><text xml:space="preserve" font-family="Verdana-Italic" font-style="italic" font-size="56.0" fill="#72665A" transform="matrix(1.00, 0.00, -0.00, -1.00, 375.8, 362.0)">d</text><text xml:space="preserve" font-family="Verdana-Italic" font-style="italic" font-size="56.0" fill="#72665A" transform="matrix(1.00, 0.00, -0.00, -1.00, 410.7, 362.0)">o</text><text xml:space="preserve" font-family="Verdana-Italic" font-style="italic" font-size="56.0" fill="#72665A" transform="matrix(1.00, 0.00, -0.00, -1.00, 444.7, 362.0)">c</text><text xml:space="preserve" font-family="Verdana-Italic" font-style="italic" font-size="56.0" fill="#72665A" transform="matrix(1.00, 0.00, -0.00, -1.00, 473.9, 362.0)">u</text><text xml:space="preserve" font-family="Verdana-Italic" font-style="italic" font-size="56.0" fill="#72665A" transform="matrix(1.00, 0.00, -0.00, -1.00, 509.3, 362.0)">m</text><text xml:space="preserve" font-family="Verdana-Italic" font-style="italic" font-size="56.0" fill="#72665A" transform="matrix(1.00, 0.00, -0.00, -1.00, 563.8, 362.0)">e</text><text xml:space="preserve" font-family="Verdana-Italic" font-style="italic" font-size="56.0" fill="#72665A" transform="matrix(1.00, 0.00, -0.00, -1.00, 597.1, 362.0)">n</text><text xml:space="preserve" font-family="Verdana-Italic" font-style="italic" font-size="56.0" fill="#72665A" transform="matrix(1.00, 0.00, -0.00, -1.00, 632.6, 362.0)">t</text><text xml:space="preserve" font-family="Verdana-Italic" font-style="italic" font-size="56.0" fill="#72665A" transform="matrix(1.00, 0.00, -0.00, -1.00, 654.6, 362.0)"> </text><text xml:space="preserve" font-family="Verdana-Italic" font-style="italic" font-size="56.0" fill="#72665A" transform="matrix(1.00, 0.00, -0.00, -1.00, 674.3, 362.0)">i</text><text xml:space="preserve" font-family="Verdana-Italic" font-style="italic" font-size="56.0" fill="#72665A" transform="matrix(1.00, 0.00, -0.00, -1.00, 689.7, 362.0)">n</text><text xml:space="preserve" font-family="Verdana-Italic" font-style="italic" font-size="56.0" fill="#72665A" transform="matrix(1.00, 0.00, -0.00, -1.00, 725.1, 362.0)"> </text><text xml:space="preserve" font-family="Verdana-Italic" font-style="italic" font-size="56.0" fill="#72665A" transform="matrix(1.00, 0.00, -0.00, -1.00, 744.8, 362.0)">G</text><text xml:space="preserve" font-family="Verdana-Italic" font-style="italic" font-size="56.0" fill="#72665A" transform="matrix(1.00, 0.00, -0.00, -1.00, 788.2, 362.0)">i</text><text xml:space="preserve" font-family="Verdana-Italic" font-style="italic" font-size="56.0" fill="#72665A" transform="matrix(1.00, 0.00, -0.00, -1.00, 803.6, 362.0)">t</text><text xml:space="preserve" font-family="Verdana-Italic" font-style="italic" font-size="56.0" fill="#72665A" transform="matrix(1.00, 0.00, -0.00, -1.00, 825.7, 362.0)">H</text><text xml:space="preserve" font-family="Verdana-Italic" font-style="italic" font-size="56.0" fill="#72665A" transform="matrix(1.00, 0.00, -0.00, -1.00, 867.8, 362.0)">u</text><text xml:space="preserve" font-family="Verdana-Italic" font-style="italic" font-size="56.0" fill="#72665A" transform="matrix(1.00, 0.00, -0.00, -1.00, 903.2, 362.0)">b</text><text xml:space="preserve" font-family="Verdana-Italic" font-style="italic" font-size="56.0" fill="#72665A" transform="matrix(1.00, 0.00, -0.00, -1.00, 938.1, 362.0)">?</text></g></svg>