<?xml version="1.0" encoding="UTF-8" standalone="no"?><svg xmlns="http://www.w3.org/2000/svg" xmlns:xlink="http://www.w3.org/1999/xlink" clip-rule="evenodd" stroke-miterlimit="4.00" viewBox="0 0 1024 768"><desc>SVG generated by Keynote</desc><defs></defs><g transform="matrix(1.00, 0.00, -0.00, -1.00, 0.0, 768.0)"><g><clipPath id="clip-10"><path d="M 0.0 768.0 L 1024.0 768.0 L 1024.0 0.0 L 0.0 0.0 Z M 0.0 768.0 "></path></clipPath><g clip-path="url(#clip-10)"><image xlink:href="../../8B9AF44D-EE61-422A-BF61-EE53949B6ACF/assets/A66C4C7396610A43993186C2FAAF1D62.jpeg" width="1024.00" height="768.00" transform="matrix(1.00, 0.00, -0.00, -1.00, 0.0, 768.0)"></image></g></g><text xml:space="preserve" font-family="Verdana" font-size="56.0" fill="#72665A" transform="matrix(1.00, 0.00, -0.00, -1.00, 414.0, 362.0)">D</text><text xml:space="preserve" font-family="Verdana" font-size="56.0" fill="#72665A" transform="matrix(1.00, 0.00, -0.00, -1.00, 457.1, 362.0)">o</text><text xml:space="preserve" font-family="Verdana" font-size="56.0" fill="#72665A" transform="matrix(1.00, 0.00, -0.00, -1.00, 491.1, 362.0)">c</text><text xml:space="preserve" font-family="Verdana" font-size="56.0" fill="#72665A" transform="matrix(1.00, 0.00, -0.00, -1.00, 520.3, 362.0)">k</text><text xml:space="preserve" font-family="Verdana" font-size="56.0" fill="#72665A" transform="matrix(1.00, 0.00, -0.00, -1.00, 552.9, 362.0)">e</text><text xml:space="preserve" font-family="Verdana" font-size="56.0" fill="#72665A" transform="matrix(1.00, 0.00, -0.00, -1.00, 586.2, 362.0)">r</text></g></svg>