<?xml version="1.0" encoding="UTF-8" standalone="no"?><svg xmlns="http://www.w3.org/2000/svg" xmlns:xlink="http://www.w3.org/1999/xlink" clip-rule="evenodd" stroke-miterlimit="4.00" viewBox="0 0 1024 768"><desc>SVG generated by Keynote</desc><defs></defs><g transform="matrix(1.00, 0.00, -0.00, -1.00, 0.0, 768.0)"><g><clipPath id="clip-0"><path d="M 0.0 768.0 L 1024.0 768.0 L 1024.0 0.0 L 0.0 0.0 Z M 0.0 768.0 "></path></clipPath><g clip-path="url(#clip-0)"><image xlink:href="7CC131CA911FD3B065AEB53339D3EF13.jpeg" width="1024.00" height="768.00" transform="matrix(1.00, 0.00, -0.00, -1.00, 0.0, 768.0)"></image></g></g><image xlink:href="5222E845EA06D4D797714DF5CB230E99.png" width="466.00" height="45.00" transform="matrix(1.00, 0.00, -0.00, -1.00, 302.0, 475.0)"></image><text xml:space="preserve" font-family="Cochin" font-size="58.0" fill="#EAEAEA" transform="matrix(1.00, 0.00, -0.00, -1.00, 302.0, 432.0)">R</text><text xml:space="preserve" font-family="Cochin" font-size="58.0" fill="#EAEAEA" transform="matrix(1.00, 0.00, -0.00, -1.00, 346.2, 432.0)">E</text><text xml:space="preserve" font-family="Cochin" font-size="58.0" fill="#EAEAEA" transform="matrix(1.00, 0.00, -0.00, -1.00, 388.2, 432.0)">F</text><text xml:space="preserve" font-family="Cochin" font-size="58.0" fill="#EAEAEA" transform="matrix(1.00, 0.00, -0.00, -1.00, 425.0, 432.0)">A</text><text xml:space="preserve" font-family="Cochin" font-size="58.0" fill="#EAEAEA" transform="matrix(1.00, 0.00, -0.00, -1.00, 468.1, 432.0)">C</text><text xml:space="preserve" font-family="Cochin" font-size="58.0" fill="#EAEAEA" transform="matrix(1.00, 0.00, -0.00, -1.00, 511.3, 432.0)">T</text><text xml:space="preserve" font-family="Cochin" font-size="58.0" fill="#EAEAEA" transform="matrix(1.00, 0.00, -0.00, -1.00, 551.2, 432.0)">O</text><text xml:space="preserve" font-family="Cochin" font-size="58.0" fill="#EAEAEA" transform="matrix(1.00, 0.00, -0.00, -1.00, 601.8, 432.0)">R</text><text xml:space="preserve" font-family="Cochin" font-size="58.0" fill="#EAEAEA" transform="matrix(1.00, 0.00, -0.00, -1.00, 646.0, 432.0)">I</text><text xml:space="preserve" font-family="Cochin" font-size="58.0" fill="#EAEAEA" transform="matrix(1.00, 0.00, -0.00, -1.00, 670.9, 432.0)">N</text><text xml:space="preserve" font-family="Cochin" font-size="58.0" fill="#EAEAEA" transform="matrix(1.00, 0.00, -0.00, -1.00, 720.5, 432.0)">G</text><text xml:space="preserve" font-family="Cochin" font-size="58.0" fill="#EAEAEA" transform="matrix(1.00, 0.00, -0.00, -1.00, 767.9, 432.0)"> </text><image xlink:href="4EE2AC163F2A747C5F1DDE90E64D170E.png" width="206.00" height="44.00" transform="matrix(1.00, 0.00, -0.00, -1.00, 431.0, 407.0)"></image><text xml:space="preserve" font-family="Cochin" font-size="58.0" fill="#EAEAEA" transform="matrix(1.00, 0.00, -0.00, -1.00, 431.0, 364.0)">P</text><text xml:space="preserve" font-family="Cochin" font-size="58.0" fill="#EAEAEA" transform="matrix(1.00, 0.00, -0.00, -1.00, 466.7, 364.0)">A</text><text xml:space="preserve" font-family="Cochin" font-size="58.0" fill="#EAEAEA" transform="matrix(1.00, 0.00, -0.00, -1.00, 509.8, 364.0)">R</text><text xml:space="preserve" font-family="Cochin" font-size="58.0" fill="#EAEAEA" transform="matrix(1.00, 0.00, -0.00, -1.00, 551.9, 364.0)">T</text><text xml:space="preserve" font-family="Cochin" font-size="58.0" fill="#EAEAEA" transform="matrix(1.00, 0.00, -0.00, -1.00, 591.8, 364.0)"> </text><text xml:space="preserve" font-family="Cochin" font-size="58.0" fill="#EAEAEA" transform="matrix(1.00, 0.00, -0.00, -1.00, 608.6, 364.0)">2</text><image xlink:href="6D01F38675A9FE9C2474C4B521DFAA30.png" width="520.00" height="37.00" transform="matrix(1.00, 0.00, -0.00, -1.00, 265.0, 341.0)"></image><text xml:space="preserve" font-family="Cochin" font-size="36.0" fill="#FEFFFE" transform="matrix(1.00, 0.00, -0.00, -1.00, 264.0, 311.0)">[</text><text xml:space="preserve" font-family="Cochin" font-size="36.0" fill="#FEFFFE" transform="matrix(1.00, 0.00, -0.00, -1.00, 279.4, 311.0)">f</text><text xml:space="preserve" font-family="Cochin" font-size="36.0" fill="#FEFFFE" transform="matrix(1.00, 0.00, -0.00, -1.00, 292.2, 311.0)">r</text><text xml:space="preserve" font-family="Cochin" font-size="36.0" fill="#FEFFFE" transform="matrix(1.00, 0.00, -0.00, -1.00, 307.7, 311.0)">o</text><text xml:space="preserve" font-family="Cochin" font-size="36.0" fill="#FEFFFE" transform="matrix(1.00, 0.00, -0.00, -1.00, 327.1, 311.0)">m</text><text xml:space="preserve" font-family="Cochin" font-size="36.0" fill="#FEFFFE" transform="matrix(1.00, 0.00, -0.00, -1.00, 356.6, 311.0)"> </text><text xml:space="preserve" font-family="Cochin" font-size="36.0" fill="#FEFFFE" transform="matrix(1.00, 0.00, -0.00, -1.00, 367.0, 311.0)">P</text><text xml:space="preserve" font-family="Cochin" font-size="36.0" fill="#FEFFFE" transform="matrix(1.00, 0.00, -0.00, -1.00, 391.1, 311.0)">E</text><text xml:space="preserve" font-family="Cochin" font-size="36.0" fill="#FEFFFE" transform="matrix(1.00, 0.00, -0.00, -1.00, 417.2, 311.0)">I</text><text xml:space="preserve" font-family="Cochin" font-size="36.0" fill="#FEFFFE" transform="matrix(1.00, 0.00, -0.00, -1.00, 432.7, 311.0)"> </text><text xml:space="preserve" font-family="Cochin" font-size="36.0" fill="#FEFFFE" transform="matrix(1.00, 0.00, -0.00, -1.00, 443.1, 311.0)">D</text><text xml:space="preserve" font-family="Cochin" font-size="36.0" fill="#FEFFFE" transform="matrix(1.00, 0.00, -0.00, -1.00, 474.5, 311.0)">e</text><text xml:space="preserve" font-family="Cochin" font-size="36.0" fill="#FEFFFE" transform="matrix(1.00, 0.00, -0.00, -1.00, 492.0, 311.0)">v</text><text xml:space="preserve" font-family="Cochin" font-size="36.0" fill="#FEFFFE" transform="matrix(1.00, 0.00, -0.00, -1.00, 511.4, 311.0)">s</text><text xml:space="preserve" font-family="Cochin" font-size="36.0" fill="#FEFFFE" transform="matrix(1.00, 0.00, -0.00, -1.00, 526.8, 311.0)"> </text><text xml:space="preserve" font-family="Cochin" font-size="36.0" fill="#FEFFFE" transform="matrix(1.00, 0.00, -0.00, -1.00, 537.3, 311.0)">S</text><text xml:space="preserve" font-family="Cochin" font-size="36.0" fill="#FEFFFE" transform="matrix(1.00, 0.00, -0.00, -1.00, 560.1, 311.0)">l</text><text xml:space="preserve" font-family="Cochin" font-size="36.0" fill="#FEFFFE" transform="matrix(1.00, 0.00, -0.00, -1.00, 570.8, 311.0)">a</text><text xml:space="preserve" font-family="Cochin" font-size="36.0" fill="#FEFFFE" transform="matrix(1.00, 0.00, -0.00, -1.00, 588.9, 311.0)">c</text><text xml:space="preserve" font-family="Cochin" font-size="36.0" fill="#FEFFFE" transform="matrix(1.00, 0.00, -0.00, -1.00, 606.4, 311.0)">k</text><text xml:space="preserve" font-family="Cochin" font-size="36.0" fill="#FEFFFE" transform="matrix(1.00, 0.00, -0.00, -1.00, 627.1, 311.0)"> </text><text xml:space="preserve" font-family="Cochin" font-size="36.0" fill="#FEFFFE" transform="matrix(1.00, 0.00, -0.00, -1.00, 637.6, 311.0)">C</text><text xml:space="preserve" font-family="Cochin" font-size="36.0" fill="#FEFFFE" transform="matrix(1.00, 0.00, -0.00, -1.00, 664.4, 311.0)">h</text><text xml:space="preserve" font-family="Cochin" font-size="36.0" fill="#FEFFFE" transform="matrix(1.00, 0.00, -0.00, -1.00, 685.1, 311.0)">a</text><text xml:space="preserve" font-family="Cochin" font-size="36.0" fill="#FEFFFE" transform="matrix(1.00, 0.00, -0.00, -1.00, 703.2, 311.0)">n</text><text xml:space="preserve" font-family="Cochin" font-size="36.0" fill="#FEFFFE" transform="matrix(1.00, 0.00, -0.00, -1.00, 724.0, 311.0)">n</text><text xml:space="preserve" font-family="Cochin" font-size="36.0" fill="#FEFFFE" transform="matrix(1.00, 0.00, -0.00, -1.00, 744.8, 311.0)">e</text><text xml:space="preserve" font-family="Cochin" font-size="36.0" fill="#FEFFFE" transform="matrix(1.00, 0.00, -0.00, -1.00, 762.2, 311.0)">l</text><text xml:space="preserve" font-family="Cochin" font-size="36.0" fill="#FEFFFE" transform="matrix(1.00, 0.00, -0.00, -1.00, 773.0, 311.0)">]</text><image xlink:href="A5C7592B4BE15711101DFD715765C08E.png" width="207.00" height="38.00" transform="matrix(1.00, 0.00, -0.00, -1.00, 421.0, 299.0)"></image><text xml:space="preserve" font-family="Cochin" font-size="36.0" fill="#FEFFFE" transform="matrix(1.00, 0.00, -0.00, -1.00, 424.0, 270.0)">A</text><text xml:space="preserve" font-family="Cochin" font-size="36.0" fill="#FEFFFE" transform="matrix(1.00, 0.00, -0.00, -1.00, 450.8, 270.0)">u</text><text xml:space="preserve" font-family="Cochin" font-size="36.0" fill="#FEFFFE" transform="matrix(1.00, 0.00, -0.00, -1.00, 471.6, 270.0)">g</text><text xml:space="preserve" font-family="Cochin" font-size="36.0" fill="#FEFFFE" transform="matrix(1.00, 0.00, -0.00, -1.00, 491.0, 270.0)">u</text><text xml:space="preserve" font-family="Cochin" font-size="36.0" fill="#FEFFFE" transform="matrix(1.00, 0.00, -0.00, -1.00, 511.8, 270.0)">s</text><text xml:space="preserve" font-family="Cochin" font-size="36.0" fill="#FEFFFE" transform="matrix(1.00, 0.00, -0.00, -1.00, 527.2, 270.0)">t</text><text xml:space="preserve" font-family="Cochin" font-size="36.0" fill="#FEFFFE" transform="matrix(1.00, 0.00, -0.00, -1.00, 540.0, 270.0)"> </text><text xml:space="preserve" font-family="Cochin" font-size="36.0" fill="#FEFFFE" transform="matrix(1.00, 0.00, -0.00, -1.00, 550.4, 270.0)">2</text><text xml:space="preserve" font-family="Cochin" font-size="36.0" fill="#FEFFFE" transform="matrix(1.00, 0.00, -0.00, -1.00, 569.9, 270.0)">0</text><text xml:space="preserve" font-family="Cochin" font-size="36.0" fill="#FEFFFE" transform="matrix(1.00, 0.00, -0.00, -1.00, 589.3, 270.0)">1</text><text xml:space="preserve" font-family="Cochin" font-size="36.0" fill="#FEFFFE" transform="matrix(1.00, 0.00, -0.00, -1.00, 608.8, 270.0)">6</text></g></svg>