<?xml version="1.0" encoding="UTF-8" standalone="no"?><svg xmlns="http://www.w3.org/2000/svg" xmlns:xlink="http://www.w3.org/1999/xlink" clip-rule="evenodd" stroke-miterlimit="4.00" viewBox="0 0 1024 768"><desc>SVG generated by Keynote</desc><defs></defs><g transform="matrix(1.00, 0.00, -0.00, -1.00, 0.0, 768.0)"><g><clipPath id="clip-1"><path d="M 0.0 768.0 L 1024.0 768.0 L 1024.0 0.0 L 0.0 0.0 Z M 0.0 768.0 "></path></clipPath><g clip-path="url(#clip-1)"><image xlink:href="A66C4C7396610A43993186C2FAAF1D62.jpeg" width="1024.00" height="768.00" transform="matrix(1.00, 0.00, -0.00, -1.00, 0.0, 768.0)"></image></g></g><text xml:space="preserve" font-family="Verdana" font-size="48.0" fill="#72665A" transform="matrix(1.00, 0.00, -0.00, -1.00, 71.0, 365.0)">h</text><text xml:space="preserve" font-family="Verdana" font-size="48.0" fill="#72665A" transform="matrix(1.00, 0.00, -0.00, -1.00, 101.4, 365.0)">t</text><text xml:space="preserve" font-family="Verdana" font-size="48.0" fill="#72665A" transform="matrix(1.00, 0.00, -0.00, -1.00, 120.3, 365.0)">t</text><text xml:space="preserve" font-family="Verdana" font-size="48.0" fill="#72665A" transform="matrix(1.00, 0.00, -0.00, -1.00, 139.2, 365.0)">p</text><text xml:space="preserve" font-family="Verdana" font-size="48.0" fill="#72665A" transform="matrix(1.00, 0.00, -0.00, -1.00, 169.1, 365.0)">:</text><text xml:space="preserve" font-family="Verdana" font-size="48.0" fill="#72665A" transform="matrix(1.00, 0.00, -0.00, -1.00, 190.9, 365.0)">/</text><text xml:space="preserve" font-family="Verdana" font-size="48.0" fill="#72665A" transform="matrix(1.00, 0.00, -0.00, -1.00, 212.7, 365.0)">/</text><text xml:space="preserve" font-family="Verdana" font-size="48.0" fill="#72665A" transform="matrix(1.00, 0.00, -0.00, -1.00, 234.5, 365.0)">g</text><text xml:space="preserve" font-family="Verdana" font-size="48.0" fill="#72665A" transform="matrix(1.00, 0.00, -0.00, -1.00, 264.4, 365.0)">i</text><text xml:space="preserve" font-family="Verdana" font-size="48.0" fill="#72665A" transform="matrix(1.00, 0.00, -0.00, -1.00, 277.6, 365.0)">t</text><text xml:space="preserve" font-family="Verdana" font-size="48.0" fill="#72665A" transform="matrix(1.00, 0.00, -0.00, -1.00, 296.5, 365.0)">h</text><text xml:space="preserve" font-family="Verdana" font-size="48.0" fill="#72665A" transform="matrix(1.00, 0.00, -0.00, -1.00, 326.9, 365.0)">u</text><text xml:space="preserve" font-family="Verdana" font-size="48.0" fill="#72665A" transform="matrix(1.00, 0.00, -0.00, -1.00, 357.2, 365.0)">b</text><text xml:space="preserve" font-family="Verdana" font-size="48.0" fill="#72665A" transform="matrix(1.00, 0.00, -0.00, -1.00, 386.7, 365.0)">.</text><text xml:space="preserve" font-family="Verdana" font-size="48.0" fill="#72665A" transform="matrix(1.00, 0.00, -0.00, -1.00, 404.1, 365.0)">c</text><text xml:space="preserve" font-family="Verdana" font-size="48.0" fill="#72665A" transform="matrix(1.00, 0.00, -0.00, -1.00, 429.1, 365.0)">o</text><text xml:space="preserve" font-family="Verdana" font-size="48.0" fill="#72665A" transform="matrix(1.00, 0.00, -0.00, -1.00, 458.3, 365.0)">m</text><text xml:space="preserve" font-family="Verdana" font-size="48.0" fill="#72665A" transform="matrix(1.00, 0.00, -0.00, -1.00, 504.9, 365.0)">/</text><text xml:space="preserve" font-family="Verdana" font-size="48.0" fill="#72665A" transform="matrix(1.00, 0.00, -0.00, -1.00, 526.7, 365.0)">p</text><text xml:space="preserve" font-family="Verdana" font-size="48.0" fill="#72665A" transform="matrix(1.00, 0.00, -0.00, -1.00, 556.7, 365.0)">e</text><text xml:space="preserve" font-family="Verdana" font-size="48.0" fill="#72665A" transform="matrix(1.00, 0.00, -0.00, -1.00, 585.2, 365.0)">i</text><text xml:space="preserve" font-family="Verdana" font-size="48.0" fill="#72665A" transform="matrix(1.00, 0.00, -0.00, -1.00, 598.4, 365.0)">d</text><text xml:space="preserve" font-family="Verdana" font-size="48.0" fill="#72665A" transform="matrix(1.00, 0.00, -0.00, -1.00, 628.3, 365.0)">e</text><text xml:space="preserve" font-family="Verdana" font-size="48.0" fill="#72665A" transform="matrix(1.00, 0.00, -0.00, -1.00, 656.9, 365.0)">v</text><text xml:space="preserve" font-family="Verdana" font-size="48.0" fill="#72665A" transform="matrix(1.00, 0.00, -0.00, -1.00, 685.3, 365.0)">s</text><text xml:space="preserve" font-family="Verdana" font-size="48.0" fill="#72665A" transform="matrix(1.00, 0.00, -0.00, -1.00, 710.3, 365.0)">/</text><text xml:space="preserve" font-family="Verdana" font-size="48.0" fill="#72665A" transform="matrix(1.00, 0.00, -0.00, -1.00, 732.1, 365.0)">c</text><text xml:space="preserve" font-family="Verdana" font-size="48.0" fill="#72665A" transform="matrix(1.00, 0.00, -0.00, -1.00, 757.1, 365.0)">o</text><text xml:space="preserve" font-family="Verdana" font-size="48.0" fill="#72665A" transform="matrix(1.00, 0.00, -0.00, -1.00, 786.3, 365.0)">d</text><text xml:space="preserve" font-family="Verdana" font-size="48.0" fill="#72665A" transform="matrix(1.00, 0.00, -0.00, -1.00, 816.2, 365.0)">e</text><text xml:space="preserve" font-family="Verdana" font-size="48.0" fill="#72665A" transform="matrix(1.00, 0.00, -0.00, -1.00, 844.7, 365.0)">4</text><text xml:space="preserve" font-family="Verdana" font-size="48.0" fill="#72665A" transform="matrix(1.00, 0.00, -0.00, -1.00, 875.2, 365.0)">f</text><text xml:space="preserve" font-family="Verdana" font-size="48.0" fill="#72665A" transform="matrix(1.00, 0.00, -0.00, -1.00, 892.1, 365.0)">u</text><text xml:space="preserve" font-family="Verdana" font-size="48.0" fill="#72665A" transform="matrix(1.00, 0.00, -0.00, -1.00, 922.5, 365.0)">n</text><g><clipPath id="clip-2"><path d="M 70.0 358.5 L 953.0 358.5 L 953.0 363.3 L 70.0 363.3 Z M 70.0 358.5 "></path></clipPath><g clip-path="url(#clip-2)"><path d="M 4.5 56.1 L 886.4 56.1 " fill="none" stroke="#72665A" stroke-width="2.81" stroke-miterlimit="0.00" transform="matrix(1.00, 0.00, 0.00, -1.00, 66.5, 417.0)"></path></g></g></g></svg>