<?xml version="1.0" encoding="UTF-8" standalone="no"?><svg xmlns="http://www.w3.org/2000/svg" xmlns:xlink="http://www.w3.org/1999/xlink" clip-rule="evenodd" stroke-miterlimit="4.00" viewBox="0 0 1024 768"><desc>SVG generated by Keynote</desc><defs></defs><g transform="matrix(1.00, 0.00, -0.00, -1.00, 0.0, 768.0)"><g><clipPath id="clip-12"><path d="M 0.0 768.0 L 1024.0 768.0 L 1024.0 0.0 L 0.0 0.0 Z M 0.0 768.0 "></path></clipPath><g clip-path="url(#clip-12)"><image xlink:href="../../8B9AF44D-EE61-422A-BF61-EE53949B6ACF/assets/A66C4C7396610A43993186C2FAAF1D62.jpeg" width="1024.00" height="768.00" transform="matrix(1.00, 0.00, -0.00, -1.00, 0.0, 768.0)"></image></g></g><image xlink:href="../../4779407B-BC4C-4025-AFC7-48D75CD3E418/assets/CF68D31E235D5FFA7EE3741345561B0E.png" width="804.00" height="625.00" transform="matrix(1.00, 0.00, -0.00, -1.00, 110.0, 693.7)" opacity="0.40"></image><path d="M 255.5 692.7 L 768.5 692.7 C 809.0 692.7 829.6 692.7 851.5 685.7 C 875.5 677.0 894.3 658.1 903.1 634.2 C 910.0 612.3 910.0 591.7 910.0 550.5 L 910.0 216.9 C 910.0 176.3 910.0 155.7 903.1 133.8 C 894.3 109.9 875.5 91.0 851.5 82.3 C 829.6 75.3 809.0 75.3 767.8 75.3 L 255.5 75.3 C 215.0 75.3 194.4 75.3 172.5 82.3 C 148.5 91.0 129.7 109.9 120.9 133.8 C 114.0 155.7 114.0 176.3 114.0 217.5 L 114.0 551.1 C 114.0 591.7 114.0 612.3 120.9 634.2 C 129.7 658.1 148.5 677.0 172.5 685.7 C 194.4 692.7 215.0 692.7 256.2 692.7 Z M 255.5 692.7 " fill="#B3C6A6"></path><path d="M 219.0 540.5 L 823.9 540.5 L 823.9 513.5 L 219.0 513.5 Z M 219.0 540.5 " fill="#000000"></path><text xml:space="preserve" font-family="AndaleMono" font-size="24.0" fill="#29F913" transform="matrix(1.00, 0.00, -0.00, -1.00, 219.0, 519.0)">~</text><text xml:space="preserve" font-family="AndaleMono" font-size="24.0" fill="#29F913" transform="matrix(1.00, 0.00, -0.00, -1.00, 233.4, 519.0)">/</text><text xml:space="preserve" font-family="AndaleMono" font-size="24.0" fill="#29F913" transform="matrix(1.00, 0.00, -0.00, -1.00, 247.8, 519.0)">p</text><text xml:space="preserve" font-family="AndaleMono" font-size="24.0" fill="#29F913" transform="matrix(1.00, 0.00, -0.00, -1.00, 262.2, 519.0)">e</text><text xml:space="preserve" font-family="AndaleMono" font-size="24.0" fill="#29F913" transform="matrix(1.00, 0.00, -0.00, -1.00, 276.6, 519.0)">i</text><text xml:space="preserve" font-family="AndaleMono" font-size="24.0" fill="#29F913" transform="matrix(1.00, 0.00, -0.00, -1.00, 291.0, 519.0)">d</text><text xml:space="preserve" font-family="AndaleMono" font-size="24.0" fill="#29F913" transform="matrix(1.00, 0.00, -0.00, -1.00, 305.4, 519.0)">e</text><text xml:space="preserve" font-family="AndaleMono" font-size="24.0" fill="#29F913" transform="matrix(1.00, 0.00, -0.00, -1.00, 319.8, 519.0)">v</text><text xml:space="preserve" font-family="AndaleMono" font-size="24.0" fill="#29F913" transform="matrix(1.00, 0.00, -0.00, -1.00, 334.2, 519.0)">s</text><text xml:space="preserve" font-family="AndaleMono" font-size="24.0" fill="#29F913" transform="matrix(1.00, 0.00, -0.00, -1.00, 348.6, 519.0)">/</text><text xml:space="preserve" font-family="AndaleMono" font-size="24.0" fill="#29F913" transform="matrix(1.00, 0.00, -0.00, -1.00, 363.0, 519.0)">c</text><text xml:space="preserve" font-family="AndaleMono" font-size="24.0" fill="#29F913" transform="matrix(1.00, 0.00, -0.00, -1.00, 377.4, 519.0)">o</text><text xml:space="preserve" font-family="AndaleMono" font-size="24.0" fill="#29F913" transform="matrix(1.00, 0.00, -0.00, -1.00, 391.9, 519.0)">d</text><text xml:space="preserve" font-family="AndaleMono" font-size="24.0" fill="#29F913" transform="matrix(1.00, 0.00, -0.00, -1.00, 406.3, 519.0)">e</text><text xml:space="preserve" font-family="AndaleMono" font-size="24.0" fill="#29F913" transform="matrix(1.00, 0.00, -0.00, -1.00, 420.7, 519.0)">4</text><text xml:space="preserve" font-family="AndaleMono" font-size="24.0" fill="#29F913" transform="matrix(1.00, 0.00, -0.00, -1.00, 435.1, 519.0)">f</text><text xml:space="preserve" font-family="AndaleMono" font-size="24.0" fill="#29F913" transform="matrix(1.00, 0.00, -0.00, -1.00, 449.5, 519.0)">u</text><text xml:space="preserve" font-family="AndaleMono" font-size="24.0" fill="#29F913" transform="matrix(1.00, 0.00, -0.00, -1.00, 463.9, 519.0)">n</text><text xml:space="preserve" font-family="AndaleMono" font-size="24.0" fill="#29F913" transform="matrix(1.00, 0.00, -0.00, -1.00, 478.3, 519.0)">/</text><text xml:space="preserve" font-family="AndaleMono" font-size="24.0" fill="#29F913" transform="matrix(1.00, 0.00, -0.00, -1.00, 492.7, 519.0)">r</text><text xml:space="preserve" font-family="AndaleMono" font-size="24.0" fill="#29F913" transform="matrix(1.00, 0.00, -0.00, -1.00, 507.1, 519.0)">e</text><text xml:space="preserve" font-family="AndaleMono" font-size="24.0" fill="#29F913" transform="matrix(1.00, 0.00, -0.00, -1.00, 521.5, 519.0)">f</text><text xml:space="preserve" font-family="AndaleMono" font-size="24.0" fill="#29F913" transform="matrix(1.00, 0.00, -0.00, -1.00, 535.9, 519.0)">a</text><text xml:space="preserve" font-family="AndaleMono" font-size="24.0" fill="#29F913" transform="matrix(1.00, 0.00, -0.00, -1.00, 550.3, 519.0)">c</text><text xml:space="preserve" font-family="AndaleMono" font-size="24.0" fill="#29F913" transform="matrix(1.00, 0.00, -0.00, -1.00, 564.7, 519.0)">t</text><text xml:space="preserve" font-family="AndaleMono" font-size="24.0" fill="#29F913" transform="matrix(1.00, 0.00, -0.00, -1.00, 579.1, 519.0)">o</text><text xml:space="preserve" font-family="AndaleMono" font-size="24.0" fill="#29F913" transform="matrix(1.00, 0.00, -0.00, -1.00, 593.5, 519.0)">r</text><text xml:space="preserve" font-family="AndaleMono" font-size="24.0" fill="#29F913" transform="matrix(1.00, 0.00, -0.00, -1.00, 607.9, 519.0)">_</text><text xml:space="preserve" font-family="AndaleMono" font-size="24.0" fill="#29F913" transform="matrix(1.00, 0.00, -0.00, -1.00, 622.3, 519.0)">J</text><text xml:space="preserve" font-family="AndaleMono" font-size="24.0" fill="#29F913" transform="matrix(1.00, 0.00, -0.00, -1.00, 636.7, 519.0)">U</text><text xml:space="preserve" font-family="AndaleMono" font-size="24.0" fill="#29F913" transform="matrix(1.00, 0.00, -0.00, -1.00, 651.1, 519.0)">L</text><text xml:space="preserve" font-family="AndaleMono" font-size="24.0" fill="#29F913" transform="matrix(1.00, 0.00, -0.00, -1.00, 665.5, 519.0)">_</text><text xml:space="preserve" font-family="AndaleMono" font-size="24.0" fill="#29F913" transform="matrix(1.00, 0.00, -0.00, -1.00, 679.9, 519.0)">2</text><text xml:space="preserve" font-family="AndaleMono" font-size="24.0" fill="#29F913" transform="matrix(1.00, 0.00, -0.00, -1.00, 694.4, 519.0)">0</text><text xml:space="preserve" font-family="AndaleMono" font-size="24.0" fill="#29F913" transform="matrix(1.00, 0.00, -0.00, -1.00, 708.8, 519.0)">1</text><text xml:space="preserve" font-family="AndaleMono" font-size="24.0" fill="#29F913" transform="matrix(1.00, 0.00, -0.00, -1.00, 723.2, 519.0)">6</text><text xml:space="preserve" font-family="AndaleMono" font-size="24.0" fill="#29F913" transform="matrix(1.00, 0.00, -0.00, -1.00, 737.6, 519.0)">/</text><text xml:space="preserve" font-family="AndaleMono" font-size="24.0" fill="#29F913" transform="matrix(1.00, 0.00, -0.00, -1.00, 752.0, 519.0)">p</text><text xml:space="preserve" font-family="AndaleMono" font-size="24.0" fill="#29F913" transform="matrix(1.00, 0.00, -0.00, -1.00, 766.4, 519.0)">a</text><text xml:space="preserve" font-family="AndaleMono" font-size="24.0" fill="#29F913" transform="matrix(1.00, 0.00, -0.00, -1.00, 780.8, 519.0)">r</text><text xml:space="preserve" font-family="AndaleMono" font-size="24.0" fill="#29F913" transform="matrix(1.00, 0.00, -0.00, -1.00, 795.2, 519.0)">t</text><text xml:space="preserve" font-family="AndaleMono" font-size="24.0" fill="#29F913" transform="matrix(1.00, 0.00, -0.00, -1.00, 809.6, 519.0)">2</text><text xml:space="preserve" font-family="Baskerville" font-size="36.0" fill="#000000" transform="matrix(1.00, 0.00, -0.00, -1.00, 208.0, 608.0)">M</text><text xml:space="preserve" font-family="Baskerville" font-size="36.0" fill="#000000" transform="matrix(1.00, 0.00, -0.00, -1.00, 241.4, 608.0)">y</text><text xml:space="preserve" font-family="Baskerville" font-size="36.0" fill="#000000" transform="matrix(1.00, 0.00, -0.00, -1.00, 257.9, 608.0)"> </text><text xml:space="preserve" font-family="Baskerville" font-size="36.0" fill="#000000" transform="matrix(1.00, 0.00, -0.00, -1.00, 266.9, 608.0)">M</text><text xml:space="preserve" font-family="Baskerville" font-size="36.0" fill="#000000" transform="matrix(1.00, 0.00, -0.00, -1.00, 300.3, 608.0)">a</text><text xml:space="preserve" font-family="Baskerville" font-size="36.0" fill="#000000" transform="matrix(1.00, 0.00, -0.00, -1.00, 317.2, 608.0)">c</text><image xlink:href="../../4779407B-BC4C-4025-AFC7-48D75CD3E418/assets/4301C011D6015B3636E43A2C2A863757.png" width="485.00" height="328.00" transform="matrix(1.00, 0.00, -0.00, -1.00, 396.0, 425.0)" opacity="0.40"></image><path d="M 473.4 424.0 L 803.5 424.0 C 824.5 424.0 835.2 424.0 846.5 420.4 C 858.9 415.9 868.7 406.1 873.2 393.7 C 876.8 382.4 876.8 371.7 876.8 350.3 L 876.8 177.5 C 876.8 156.5 876.8 145.8 873.2 134.5 C 868.7 122.1 858.9 112.3 846.5 107.8 C 835.2 104.2 824.5 104.2 803.1 104.2 L 473.4 104.2 C 452.3 104.2 441.7 104.2 430.3 107.8 C 417.9 112.3 408.1 122.1 403.6 134.5 C 400.0 145.8 400.0 156.5 400.0 177.8 L 400.0 350.7 C 400.0 371.7 400.0 382.4 403.6 393.7 C 408.1 406.1 417.9 415.9 430.3 420.4 C 441.7 424.0 452.3 424.0 473.7 424.0 Z M 473.4 424.0 " fill="#D8A673"></path><text xml:space="preserve" font-family="Baskerville" font-size="36.0" fill="#000000" transform="matrix(1.00, 0.00, -0.00, -1.00, 512.0, 231.0)">D</text><text xml:space="preserve" font-family="Baskerville" font-size="36.0" fill="#000000" transform="matrix(1.00, 0.00, -0.00, -1.00, 539.4, 231.0)">o</text><text xml:space="preserve" font-family="Baskerville" font-size="36.0" fill="#000000" transform="matrix(1.00, 0.00, -0.00, -1.00, 557.4, 231.0)">c</text><text xml:space="preserve" font-family="Baskerville" font-size="36.0" fill="#000000" transform="matrix(1.00, 0.00, -0.00, -1.00, 572.8, 231.0)">k</text><text xml:space="preserve" font-family="Baskerville" font-size="36.0" fill="#000000" transform="matrix(1.00, 0.00, -0.00, -1.00, 589.3, 231.0)">e</text><text xml:space="preserve" font-family="Baskerville" font-size="36.0" fill="#000000" transform="matrix(1.00, 0.00, -0.00, -1.00, 605.0, 231.0)">r</text><text xml:space="preserve" font-family="Baskerville" font-size="36.0" fill="#000000" transform="matrix(1.00, 0.00, -0.00, -1.00, 618.1, 231.0)"> </text><text xml:space="preserve" font-family="Baskerville" font-size="36.0" fill="#000000" transform="matrix(1.00, 0.00, -0.00, -1.00, 627.1, 231.0)">c</text><text xml:space="preserve" font-family="Baskerville" font-size="36.0" fill="#000000" transform="matrix(1.00, 0.00, -0.00, -1.00, 642.5, 231.0)">o</text><text xml:space="preserve" font-family="Baskerville" font-size="36.0" fill="#000000" transform="matrix(1.00, 0.00, -0.00, -1.00, 660.5, 231.0)">n</text><text xml:space="preserve" font-family="Baskerville" font-size="36.0" fill="#000000" transform="matrix(1.00, 0.00, -0.00, -1.00, 679.7, 231.0)">t</text><text xml:space="preserve" font-family="Baskerville" font-size="36.0" fill="#000000" transform="matrix(1.00, 0.00, -0.00, -1.00, 690.1, 231.0)">a</text><text xml:space="preserve" font-family="Baskerville" font-size="36.0" fill="#000000" transform="matrix(1.00, 0.00, -0.00, -1.00, 707.0, 231.0)">i</text><text xml:space="preserve" font-family="Baskerville" font-size="36.0" fill="#000000" transform="matrix(1.00, 0.00, -0.00, -1.00, 716.0, 231.0)">n</text><text xml:space="preserve" font-family="Baskerville" font-size="36.0" fill="#000000" transform="matrix(1.00, 0.00, -0.00, -1.00, 735.1, 231.0)">e</text><text xml:space="preserve" font-family="Baskerville" font-size="36.0" fill="#000000" transform="matrix(1.00, 0.00, -0.00, -1.00, 750.9, 231.0)">r</text><text xml:space="preserve" font-family="Baskerville" font-size="36.0" fill="#000000" transform="matrix(1.00, 0.00, -0.00, -1.00, 764.0, 231.0)"> </text><text xml:space="preserve" font-family="Baskerville" font-size="36.0" fill="#000000" transform="matrix(1.00, 0.00, -0.00, -1.00, 773.0, 231.0)"> </text><text xml:space="preserve" font-family="Baskerville" font-size="36.0" fill="#000000" transform="matrix(1.00, 0.00, -0.00, -1.00, 499.0, 190.0)">w</text><text xml:space="preserve" font-family="Baskerville" font-size="36.0" fill="#000000" transform="matrix(1.00, 0.00, -0.00, -1.00, 523.4, 190.0)">i</text><text xml:space="preserve" font-family="Baskerville" font-size="36.0" fill="#000000" transform="matrix(1.00, 0.00, -0.00, -1.00, 532.4, 190.0)">t</text><text xml:space="preserve" font-family="Baskerville" font-size="36.0" fill="#000000" transform="matrix(1.00, 0.00, -0.00, -1.00, 542.9, 190.0)">h</text><text xml:space="preserve" font-family="Baskerville" font-size="36.0" fill="#000000" transform="matrix(1.00, 0.00, -0.00, -1.00, 562.0, 190.0)"> </text><text xml:space="preserve" font-family="Baskerville" font-size="36.0" fill="#000000" transform="matrix(1.00, 0.00, -0.00, -1.00, 571.0, 190.0)">L</text><text xml:space="preserve" font-family="Baskerville" font-size="36.0" fill="#000000" transform="matrix(1.00, 0.00, -0.00, -1.00, 592.7, 190.0)">i</text><text xml:space="preserve" font-family="Baskerville" font-size="36.0" fill="#000000" transform="matrix(1.00, 0.00, -0.00, -1.00, 601.7, 190.0)">n</text><text xml:space="preserve" font-family="Baskerville" font-size="36.0" fill="#000000" transform="matrix(1.00, 0.00, -0.00, -1.00, 620.5, 190.0)">u</text><text xml:space="preserve" font-family="Baskerville" font-size="36.0" fill="#000000" transform="matrix(1.00, 0.00, -0.00, -1.00, 639.3, 190.0)">x</text><text xml:space="preserve" font-family="Baskerville" font-size="36.0" fill="#000000" transform="matrix(1.00, 0.00, -0.00, -1.00, 656.5, 190.0)"> </text><text xml:space="preserve" font-family="Baskerville" font-size="36.0" fill="#000000" transform="matrix(1.00, 0.00, -0.00, -1.00, 665.5, 190.0)">/</text><text xml:space="preserve" font-family="Baskerville" font-size="36.0" fill="#000000" transform="matrix(1.00, 0.00, -0.00, -1.00, 684.3, 190.0)"> </text><text xml:space="preserve" font-family="Baskerville" font-size="36.0" fill="#000000" transform="matrix(1.00, 0.00, -0.00, -1.00, 693.3, 190.0)">m</text><text xml:space="preserve" font-family="Baskerville" font-size="36.0" fill="#000000" transform="matrix(1.00, 0.00, -0.00, -1.00, 722.2, 190.0)">o</text><text xml:space="preserve" font-family="Baskerville" font-size="36.0" fill="#000000" transform="matrix(1.00, 0.00, -0.00, -1.00, 740.2, 190.0)">n</text><text xml:space="preserve" font-family="Baskerville" font-size="36.0" fill="#000000" transform="matrix(1.00, 0.00, -0.00, -1.00, 759.3, 190.0)">o</text><path d="M 475.5 397.5 L 547.5 397.5 L 547.5 370.5 L 475.5 370.5 Z M 475.5 397.5 " fill="#000000"></path><text xml:space="preserve" font-family="AndaleMono" font-size="24.0" fill="#29F913" transform="matrix(1.00, 0.00, -0.00, -1.00, 475.0, 376.0)">/</text><text xml:space="preserve" font-family="AndaleMono" font-size="24.0" fill="#29F913" transform="matrix(1.00, 0.00, -0.00, -1.00, 489.4, 376.0)">d</text><text xml:space="preserve" font-family="AndaleMono" font-size="24.0" fill="#29F913" transform="matrix(1.00, 0.00, -0.00, -1.00, 503.8, 376.0)">a</text><text xml:space="preserve" font-family="AndaleMono" font-size="24.0" fill="#29F913" transform="matrix(1.00, 0.00, -0.00, -1.00, 518.2, 376.0)">t</text><text xml:space="preserve" font-family="AndaleMono" font-size="24.0" fill="#29F913" transform="matrix(1.00, 0.00, -0.00, -1.00, 532.6, 376.0)">a</text><path d="M 0.0 0.0 L 269.8 0.0 " fill="none" stroke="#000000" stroke-width="4.00" transform="matrix(0.91, 0.40, 0.40, -0.91, 524.6, 401.3)"></path></g></svg>