<?xml version="1.0" encoding="UTF-8" standalone="no"?><svg xmlns="http://www.w3.org/2000/svg" xmlns:xlink="http://www.w3.org/1999/xlink" clip-rule="evenodd" stroke-miterlimit="4.00" viewBox="0 0 1024 768"><desc>SVG generated by Keynote</desc><defs></defs><g transform="matrix(1.00, 0.00, -0.00, -1.00, 0.0, 768.0)"><g><clipPath id="clip-16"><path d="M 0.0 768.0 L 1024.0 768.0 L 1024.0 0.0 L 0.0 0.0 Z M 0.0 768.0 "></path></clipPath><g clip-path="url(#clip-16)"><image xlink:href="../../8B9AF44D-EE61-422A-BF61-EE53949B6ACF/assets/A66C4C7396610A43993186C2FAAF1D62.jpeg" width="1024.00" height="768.00" transform="matrix(1.00, 0.00, -0.00, -1.00, 0.0, 768.0)"></image></g></g><image xlink:href="../../06B3A010-ECB0-4913-8CA1-DF448A4A49C2/assets/C86019D116B672A96E230D70FF647931.png" width="252.00" height="108.00" transform="matrix(1.00, 0.00, -0.00, -1.00, 400.5, 599.0)" opacity="0.40"></image><path d="M 427.4 598.0 L 625.3 598.0 C 631.9 598.0 635.2 598.0 638.8 596.9 C 642.6 595.5 645.7 592.4 647.1 588.5 C 648.2 585.0 648.2 581.6 648.2 575.0 L 648.2 520.9 C 648.2 514.4 648.2 511.0 647.1 507.5 C 645.7 503.6 642.6 500.5 638.8 499.1 C 635.2 498.0 631.9 498.0 625.2 498.0 L 427.4 498.0 C 420.9 498.0 417.5 498.0 414.0 499.1 C 410.1 500.5 407.0 503.6 405.6 507.5 C 404.5 511.0 404.5 514.4 404.5 521.0 L 404.5 575.1 C 404.5 581.6 404.5 585.0 405.6 588.5 C 407.0 592.4 410.1 595.5 414.0 596.9 C 417.5 598.0 420.9 598.0 427.5 598.0 Z M 427.4 598.0 " fill="#B3C6A6"></path><text xml:space="preserve" font-family="Verdana" font-size="36.0" fill="#000000" transform="matrix(1.00, 0.00, -0.00, -1.00, 464.0, 534.0)">A</text><text xml:space="preserve" font-family="Verdana" font-size="36.0" fill="#000000" transform="matrix(1.00, 0.00, -0.00, -1.00, 488.6, 534.0)">n</text><text xml:space="preserve" font-family="Verdana" font-size="36.0" fill="#000000" transform="matrix(1.00, 0.00, -0.00, -1.00, 511.4, 534.0)">i</text><text xml:space="preserve" font-family="Verdana" font-size="36.0" fill="#000000" transform="matrix(1.00, 0.00, -0.00, -1.00, 521.3, 534.0)">m</text><text xml:space="preserve" font-family="Verdana" font-size="36.0" fill="#000000" transform="matrix(1.00, 0.00, -0.00, -1.00, 556.3, 534.0)">a</text><text xml:space="preserve" font-family="Verdana" font-size="36.0" fill="#000000" transform="matrix(1.00, 0.00, -0.00, -1.00, 577.9, 534.0)">l</text><image xlink:href="../../06B3A010-ECB0-4913-8CA1-DF448A4A49C2/assets/C86019D116B672A96E230D70FF647931.png" width="252.00" height="108.00" transform="matrix(1.00, 0.00, -0.00, -1.00, 85.5, 376.0)" opacity="0.40"></image><path d="M 112.4 375.0 L 310.3 375.0 C 316.9 375.0 320.2 375.0 323.8 373.9 C 327.6 372.5 330.7 369.4 332.1 365.5 C 333.2 362.0 333.2 358.6 333.2 352.0 L 333.2 297.9 C 333.2 291.4 333.2 288.0 332.1 284.5 C 330.7 280.6 327.6 277.5 323.8 276.1 C 320.2 275.0 316.9 275.0 310.2 275.0 L 112.4 275.0 C 105.9 275.0 102.5 275.0 99.0 276.1 C 95.1 277.5 92.0 280.6 90.6 284.5 C 89.5 288.0 89.5 291.4 89.5 298.0 L 89.5 352.1 C 89.5 358.6 89.5 362.0 90.6 365.5 C 92.0 369.4 95.1 372.5 99.0 373.9 C 102.5 375.0 105.9 375.0 112.5 375.0 Z M 112.4 375.0 " fill="#B3C6A6"></path><text xml:space="preserve" font-family="Verdana" font-size="36.0" fill="#000000" transform="matrix(1.00, 0.00, -0.00, -1.00, 170.0, 311.0)">B</text><text xml:space="preserve" font-family="Verdana" font-size="36.0" fill="#000000" transform="matrix(1.00, 0.00, -0.00, -1.00, 194.7, 311.0)">e</text><text xml:space="preserve" font-family="Verdana" font-size="36.0" fill="#000000" transform="matrix(1.00, 0.00, -0.00, -1.00, 216.1, 311.0)">a</text><text xml:space="preserve" font-family="Verdana" font-size="36.0" fill="#000000" transform="matrix(1.00, 0.00, -0.00, -1.00, 237.7, 311.0)">r</text><image xlink:href="../../06B3A010-ECB0-4913-8CA1-DF448A4A49C2/assets/C86019D116B672A96E230D70FF647931.png" width="252.00" height="108.00" transform="matrix(1.00, 0.00, -0.00, -1.00, 400.5, 376.0)" opacity="0.40"></image><path d="M 427.4 375.0 L 625.3 375.0 C 631.9 375.0 635.2 375.0 638.8 373.9 C 642.6 372.5 645.7 369.4 647.1 365.5 C 648.2 362.0 648.2 358.6 648.2 352.0 L 648.2 297.9 C 648.2 291.4 648.2 288.0 647.1 284.5 C 645.7 280.6 642.6 277.5 638.8 276.1 C 635.2 275.0 631.9 275.0 625.2 275.0 L 427.4 275.0 C 420.9 275.0 417.5 275.0 414.0 276.1 C 410.1 277.5 407.0 280.6 405.6 284.5 C 404.5 288.0 404.5 291.4 404.5 298.0 L 404.5 352.1 C 404.5 358.6 404.5 362.0 405.6 365.5 C 407.0 369.4 410.1 372.5 414.0 373.9 C 417.5 375.0 420.9 375.0 427.5 375.0 Z M 427.4 375.0 " fill="#B3C6A6"></path><text xml:space="preserve" font-family="Verdana" font-size="36.0" fill="#000000" transform="matrix(1.00, 0.00, -0.00, -1.00, 461.0, 311.0)">D</text><text xml:space="preserve" font-family="Verdana" font-size="36.0" fill="#000000" transform="matrix(1.00, 0.00, -0.00, -1.00, 488.7, 311.0)">r</text><text xml:space="preserve" font-family="Verdana" font-size="36.0" fill="#000000" transform="matrix(1.00, 0.00, -0.00, -1.00, 503.4, 311.0)">a</text><text xml:space="preserve" font-family="Verdana" font-size="36.0" fill="#000000" transform="matrix(1.00, 0.00, -0.00, -1.00, 525.0, 311.0)">g</text><text xml:space="preserve" font-family="Verdana" font-size="36.0" fill="#000000" transform="matrix(1.00, 0.00, -0.00, -1.00, 547.5, 311.0)">o</text><text xml:space="preserve" font-family="Verdana" font-size="36.0" fill="#000000" transform="matrix(1.00, 0.00, -0.00, -1.00, 569.3, 311.0)">n</text><image xlink:href="../../06B3A010-ECB0-4913-8CA1-DF448A4A49C2/assets/C86019D116B672A96E230D70FF647931.png" width="252.00" height="108.00" transform="matrix(1.00, 0.00, -0.00, -1.00, 702.5, 376.0)" opacity="0.40"></image><path d="M 729.4 375.0 L 927.3 375.0 C 933.9 375.0 937.2 375.0 940.8 373.9 C 944.6 372.5 947.7 369.4 949.1 365.5 C 950.2 362.0 950.2 358.6 950.2 352.0 L 950.2 297.9 C 950.2 291.4 950.2 288.0 949.1 284.5 C 947.7 280.6 944.6 277.5 940.8 276.1 C 937.2 275.0 933.9 275.0 927.2 275.0 L 729.4 275.0 C 722.9 275.0 719.5 275.0 716.0 276.1 C 712.1 277.5 709.0 280.6 707.6 284.5 C 706.5 288.0 706.5 291.4 706.5 298.0 L 706.5 352.1 C 706.5 358.6 706.5 362.0 707.6 365.5 C 709.0 369.4 712.1 372.5 716.0 373.9 C 719.5 375.0 722.9 375.0 729.5 375.0 Z M 729.4 375.0 " fill="#B3C6A6"></path><text xml:space="preserve" font-family="Verdana" font-size="36.0" fill="#000000" transform="matrix(1.00, 0.00, -0.00, -1.00, 783.0, 311.0)">T</text><text xml:space="preserve" font-family="Verdana" font-size="36.0" fill="#000000" transform="matrix(1.00, 0.00, -0.00, -1.00, 805.2, 311.0)">i</text><text xml:space="preserve" font-family="Verdana" font-size="36.0" fill="#000000" transform="matrix(1.00, 0.00, -0.00, -1.00, 815.1, 311.0)">g</text><text xml:space="preserve" font-family="Verdana" font-size="36.0" fill="#000000" transform="matrix(1.00, 0.00, -0.00, -1.00, 837.5, 311.0)">e</text><text xml:space="preserve" font-family="Verdana" font-size="36.0" fill="#000000" transform="matrix(1.00, 0.00, -0.00, -1.00, 858.9, 311.0)">r</text></g></svg>