<?xml version="1.0" encoding="UTF-8" standalone="no"?><svg xmlns="http://www.w3.org/2000/svg" xmlns:xlink="http://www.w3.org/1999/xlink" clip-rule="evenodd" stroke-miterlimit="4.00" viewBox="0 0 1024 768"><desc>SVG generated by Keynote</desc><defs></defs><g transform="matrix(1.00, 0.00, -0.00, -1.00, 0.0, 768.0)"><g><clipPath id="clip-23"><path d="M 0.0 768.0 L 1024.0 768.0 L 1024.0 0.0 L 0.0 0.0 Z M 0.0 768.0 "></path></clipPath><g clip-path="url(#clip-23)"><image xlink:href="../../8B9AF44D-EE61-422A-BF61-EE53949B6ACF/assets/A66C4C7396610A43993186C2FAAF1D62.jpeg" width="1024.00" height="768.00" transform="matrix(1.00, 0.00, -0.00, -1.00, 0.0, 768.0)"></image></g></g><image xlink:href="92D49A71012D96C17C5F765D29773A47.jpeg" width="844.00" height="561.00" transform="matrix(1.00, 0.00, -0.00, -1.00, 90.0, 664.0)"></image><text xml:space="preserve" font-family="Baskerville" font-size="20.0" fill="#000000" transform="matrix(1.00, 0.00, -0.00, -1.00, 398.0, 58.0)">“</text><text xml:space="preserve" font-family="Baskerville" font-size="20.0" fill="#000000" transform="matrix(1.00, 0.00, -0.00, -1.00, 407.2, 58.0)">T</text><text xml:space="preserve" font-family="Baskerville" font-size="20.0" fill="#000000" transform="matrix(1.00, 0.00, -0.00, -1.00, 421.3, 58.0)">h</text><text xml:space="preserve" font-family="Baskerville" font-size="20.0" fill="#000000" transform="matrix(1.00, 0.00, -0.00, -1.00, 432.0, 58.0)">a</text><text xml:space="preserve" font-family="Baskerville" font-size="20.0" fill="#000000" transform="matrix(1.00, 0.00, -0.00, -1.00, 441.3, 58.0)">n</text><text xml:space="preserve" font-family="Baskerville" font-size="20.0" fill="#000000" transform="matrix(1.00, 0.00, -0.00, -1.00, 452.0, 58.0)">k</text><text xml:space="preserve" font-family="Baskerville" font-size="20.0" fill="#000000" transform="matrix(1.00, 0.00, -0.00, -1.00, 461.1, 58.0)"> </text><text xml:space="preserve" font-family="Baskerville" font-size="20.0" fill="#000000" transform="matrix(1.00, 0.00, -0.00, -1.00, 466.1, 58.0)">Y</text><text xml:space="preserve" font-family="Baskerville" font-size="20.0" fill="#000000" transform="matrix(1.00, 0.00, -0.00, -1.00, 477.3, 58.0)">o</text><text xml:space="preserve" font-family="Baskerville" font-size="20.0" fill="#000000" transform="matrix(1.00, 0.00, -0.00, -1.00, 487.3, 58.0)">u</text><text xml:space="preserve" font-family="Baskerville" font-size="20.0" fill="#000000" transform="matrix(1.00, 0.00, -0.00, -1.00, 497.7, 58.0)">”</text><text xml:space="preserve" font-family="Baskerville" font-size="20.0" fill="#000000" transform="matrix(1.00, 0.00, -0.00, -1.00, 506.9, 58.0)"> </text><text xml:space="preserve" font-family="Baskerville" font-size="20.0" fill="#000000" transform="matrix(1.00, 0.00, -0.00, -1.00, 511.9, 58.0)">b</text><text xml:space="preserve" font-family="Baskerville" font-size="20.0" fill="#000000" transform="matrix(1.00, 0.00, -0.00, -1.00, 521.7, 58.0)">y</text><text xml:space="preserve" font-family="Baskerville" font-size="20.0" fill="#000000" transform="matrix(1.00, 0.00, -0.00, -1.00, 530.9, 58.0)"> </text><text xml:space="preserve" font-family="Baskerville" font-size="20.0" fill="#000000" transform="matrix(1.00, 0.00, -0.00, -1.00, 535.9, 58.0)">N</text><text xml:space="preserve" font-family="Baskerville" font-size="20.0" fill="#000000" transform="matrix(1.00, 0.00, -0.00, -1.00, 550.9, 58.0)">a</text><text xml:space="preserve" font-family="Baskerville" font-size="20.0" fill="#000000" transform="matrix(1.00, 0.00, -0.00, -1.00, 560.1, 58.0)">t</text><text xml:space="preserve" font-family="Baskerville" font-size="20.0" fill="#000000" transform="matrix(1.00, 0.00, -0.00, -1.00, 565.9, 58.0)">e</text><text xml:space="preserve" font-family="Baskerville" font-size="20.0" fill="#000000" transform="matrix(1.00, 0.00, -0.00, -1.00, 574.7, 58.0)"> </text><text xml:space="preserve" font-family="Baskerville" font-size="20.0" fill="#000000" transform="matrix(1.00, 0.00, -0.00, -1.00, 579.7, 58.0)">G</text><text xml:space="preserve" font-family="Baskerville" font-size="20.0" fill="#000000" transform="matrix(1.00, 0.00, -0.00, -1.00, 595.1, 58.0)">r</text><text xml:space="preserve" font-family="Baskerville" font-size="20.0" fill="#000000" transform="matrix(1.00, 0.00, -0.00, -1.00, 602.4, 58.0)">i</text><text xml:space="preserve" font-family="Baskerville" font-size="20.0" fill="#000000" transform="matrix(1.00, 0.00, -0.00, -1.00, 607.4, 58.0)">g</text><text xml:space="preserve" font-family="Baskerville" font-size="20.0" fill="#000000" transform="matrix(1.00, 0.00, -0.00, -1.00, 616.9, 58.0)">g</text><text xml:space="preserve" font-family="Baskerville" font-size="36.0" fill="#72665A" transform="matrix(1.00, 0.00, -0.00, -1.00, 626.3, 58.0)"> </text><g><clipPath id="clip-24"><path d="M 396.8 54.9 L 626.2 54.9 L 626.2 57.9 L 396.8 57.9 Z M 396.8 54.9 "></path></clipPath><g clip-path="url(#clip-24)"><path d="M 9.0 38.1 L 237.3 38.1 " fill="none" stroke="#000000" stroke-width="1.00" stroke-miterlimit="0.00" transform="matrix(1.00, 0.00, 0.00, -1.00, 388.8, 94.5)"></path></g></g><text xml:space="preserve" font-family="Baskerville" font-size="20.0" fill="#000000" transform="matrix(1.00, 0.00, -0.00, -1.00, 467.0, 25.0)">C</text><text xml:space="preserve" font-family="Baskerville" font-size="20.0" fill="#000000" transform="matrix(1.00, 0.00, -0.00, -1.00, 481.4, 25.0)">C</text><text xml:space="preserve" font-family="Baskerville" font-size="20.0" fill="#000000" transform="matrix(1.00, 0.00, -0.00, -1.00, 495.7, 25.0)"> </text><text xml:space="preserve" font-family="Baskerville" font-size="20.0" fill="#000000" transform="matrix(1.00, 0.00, -0.00, -1.00, 500.7, 25.0)">B</text><text xml:space="preserve" font-family="Baskerville" font-size="20.0" fill="#000000" transform="matrix(1.00, 0.00, -0.00, -1.00, 513.0, 25.0)">Y</text><text xml:space="preserve" font-family="Baskerville" font-size="20.0" fill="#000000" transform="matrix(1.00, 0.00, -0.00, -1.00, 526.6, 25.0)"> </text><text xml:space="preserve" font-family="Baskerville" font-size="20.0" fill="#000000" transform="matrix(1.00, 0.00, -0.00, -1.00, 531.6, 25.0)">2</text><text xml:space="preserve" font-family="Baskerville" font-size="20.0" fill="#000000" transform="matrix(1.00, 0.00, -0.00, -1.00, 541.6, 25.0)">.</text><text xml:space="preserve" font-family="Baskerville" font-size="20.0" fill="#000000" transform="matrix(1.00, 0.00, -0.00, -1.00, 546.6, 25.0)">0</text><g><clipPath id="clip-25"><path d="M 466.2 21.9 L 556.8 21.9 L 556.8 24.9 L 466.2 24.9 Z M 466.2 21.9 "></path></clipPath><g clip-path="url(#clip-25)"><path d="M 4.5 24.1 L 94.1 24.1 " fill="none" stroke="#000000" stroke-width="1.00" stroke-miterlimit="0.00" transform="matrix(1.00, 0.00, 0.00, -1.00, 462.7, 47.5)"></path></g></g></g></svg>